<?xml version="1.0" encoding="utf-8"?>
<!-- Generator: Adobe Illustrator 17.0.0, SVG Export Plug-In . SVG Version: 6.00 Build 0)  -->
<!DOCTYPE svg PUBLIC "-//W3C//DTD SVG 1.1//EN" "http://www.w3.org/Graphics/SVG/1.1/DTD/svg11.dtd">
<svg version="1.1" id="Layer_1" xmlns="http://www.w3.org/2000/svg" xmlns:xlink="http://www.w3.org/1999/xlink" x="0px" y="0px"
	 width="50px" height="25px" viewBox="0 0 50 25" enable-background="new 0 0 50 25" xml:space="preserve">
<rect fill="none" width="25" height="25"/>
<rect x="25" fill="none" width="25" height="25"/>
<path fill="#FFFFFF" d="M42,7.5C42,7.224,41.776,7,41.5,7S41,7.224,41,7.5v8.574l-7.109-8.887c-0.006-0.007-0.015-0.011-0.021-0.018
	c-0.023-0.026-0.051-0.046-0.08-0.066c-0.025-0.018-0.047-0.037-0.074-0.05c-0.028-0.014-0.058-0.02-0.089-0.028
	c-0.033-0.009-0.064-0.018-0.098-0.02C33.518,7.005,33.51,7,33.5,7c-0.023,0-0.043,0.01-0.066,0.013
	c-0.033,0.004-0.065,0.008-0.096,0.019c-0.034,0.012-0.063,0.029-0.094,0.048c-0.018,0.011-0.039,0.015-0.057,0.029
	c-0.008,0.006-0.011,0.015-0.018,0.021c-0.026,0.023-0.045,0.051-0.066,0.079c-0.018,0.025-0.038,0.048-0.051,0.076
	c-0.013,0.027-0.019,0.057-0.027,0.086c-0.009,0.034-0.019,0.067-0.021,0.102C33.005,7.483,33,7.491,33,7.5v10
	c0,0.276,0.224,0.5,0.5,0.5s0.5-0.224,0.5-0.5V8.926l7.109,8.887c0.005,0.007,0.014,0.009,0.02,0.016
	c0.035,0.039,0.076,0.069,0.121,0.096c0.016,0.009,0.029,0.023,0.045,0.031C41.359,17.983,41.427,18,41.5,18
	c0.108,0,0.202-0.041,0.284-0.099c0.009-0.006,0.02-0.003,0.029-0.01c0.008-0.006,0.011-0.015,0.018-0.021
	c0.026-0.023,0.045-0.051,0.066-0.079c0.018-0.025,0.038-0.048,0.051-0.076c0.013-0.027,0.019-0.057,0.027-0.086
	c0.009-0.034,0.019-0.067,0.021-0.102C41.995,17.517,42,17.509,42,17.5V7.5z"/>
<g>
	<path fill="#FFFFFF" d="M8.691,7.038c-0.122-0.051-0.26-0.051-0.382,0C8.248,7.064,8.192,7.101,8.146,7.147l-2.999,2.999
		c-0.195,0.195-0.195,0.512,0,0.707C5.244,10.951,5.372,11,5.5,11s0.256-0.049,0.354-0.146L8,8.707V17.5C8,17.776,8.224,18,8.5,18
		S9,17.776,9,17.5v-10c0-0.065-0.013-0.13-0.038-0.191C8.911,7.187,8.813,7.089,8.691,7.038z"/>
	<path fill="#FFFFFF" d="M19.854,14.146c-0.195-0.195-0.512-0.195-0.707,0L17,16.293V7.5C17,7.224,16.776,7,16.5,7S16,7.224,16,7.5
		v8.793l-2.146-2.146c-0.195-0.195-0.512-0.195-0.707,0s-0.195,0.512,0,0.707l2.999,2.999c0.046,0.046,0.102,0.083,0.163,0.109
		C16.37,17.987,16.435,18,16.5,18s0.13-0.013,0.191-0.038c0.062-0.025,0.117-0.062,0.163-0.109l2.999-2.999
		C20.049,14.658,20.049,14.342,19.854,14.146z"/>
</g>
</svg>
