<?xml version="1.0" encoding="utf-8"?>
<!-- Generator: Adobe Illustrator 17.0.0, SVG Export Plug-In . SVG Version: 6.00 Build 0)  -->
<!DOCTYPE svg PUBLIC "-//W3C//DTD SVG 1.1//EN" "http://www.w3.org/Graphics/SVG/1.1/DTD/svg11.dtd">
<svg version="1.1" id="Layer_1" xmlns="http://www.w3.org/2000/svg" xmlns:xlink="http://www.w3.org/1999/xlink" x="0px" y="0px"
	 width="15px" height="15px" viewBox="0 0 15 15" enable-background="new 0 0 15 15" xml:space="preserve">
<path fill="#64B5F6" d="M7.5,14.5c-3.86,0-7-3.141-7-7c0-3.86,3.14-7,7-7c3.859,0,7,3.14,7,7C14.5,11.359,11.359,14.5,7.5,14.5z
	 M7.5,1.5c-3.309,0-6,2.691-6,6s2.691,6,6,6s6-2.691,6-6S10.809,1.5,7.5,1.5z"/>
<g>
	<path fill="#64B5F6" d="M7.5,9.5c-0.012,0-0.024,0-0.036-0.001C7.189,9.479,6.982,9.24,7.001,8.965
		c0.025-0.359,0.142-0.781,0.156-0.828c0.027-0.121,0.077-0.266,0.142-0.405C7.44,7.428,7.668,7.156,7.996,6.9
		c0.23-0.179,0.422-0.343,0.571-0.492C8.686,6.29,8.779,6.177,8.838,6.083C8.895,5.993,8.919,5.924,8.93,5.882
		c0.015-0.057,0.032-0.156,0.032-0.306c0-0.186-0.029-0.336-0.089-0.458C8.812,4.991,8.736,4.895,8.635,4.812
		C8.512,4.713,8.376,4.643,8.207,4.591C8.012,4.53,7.796,4.5,7.565,4.5c-0.523,0-0.92,0.119-1.215,0.364
		C6.197,4.99,6.084,5.151,6.005,5.358c-0.1,0.257-0.39,0.387-0.646,0.286C5.101,5.545,4.973,5.255,5.072,4.998
		c0.141-0.365,0.356-0.669,0.64-0.904C6.193,3.694,6.799,3.5,7.565,3.5c0.332,0,0.647,0.045,0.936,0.135
		c0.29,0.088,0.54,0.219,0.763,0.399c0.215,0.174,0.386,0.392,0.51,0.647C9.9,4.942,9.962,5.235,9.962,5.576
		c0,0.205-0.021,0.392-0.063,0.556C9.857,6.292,9.785,6.454,9.686,6.613c-0.099,0.159-0.237,0.328-0.41,0.501
		C9.102,7.289,8.879,7.48,8.611,7.689c-0.2,0.156-0.333,0.308-0.406,0.464C8.17,8.229,8.144,8.307,8.126,8.384
		C8.091,8.509,8.014,8.818,7.999,9.035C7.98,9.299,7.761,9.5,7.5,9.5z"/>
</g>
<circle fill="#64B5F6" cx="7.5" cy="11.5" r="0.75"/>
</svg>
